<svg xmlns="http://www.w3.org/2000/svg" viewBox="0 0 160 110"><rect x="30" y="10" width="100" height="88" rx="6" fill="#F2E6D0"></rect><rect x="30" y="10" width="20" height="22" fill="#F2E6D0"></rect><rect x="50" y="10" width="20" height="22" fill="#B88A5A"></rect><rect x="70" y="10" width="20" height="22" fill="#F2E6D0"></rect><rect x="90" y="10" width="20" height="22" fill="#B88A5A"></rect><rect x="110" y="10" width="20" height="22" fill="#F2E6D0"></rect><rect x="30" y="32" width="20" height="22" fill="#B88A5A"></rect><rect x="50" y="32" width="20" height="22" fill="#F2E6D0"></rect><rect x="70" y="32" width="20" height="22" fill="#B88A5A"></rect><rect x="90" y="32" width="20" height="22" fill="#F2E6D0"></rect><rect x="110" y="32" width="20" height="22" fill="#B88A5A"></rect><rect x="30" y="54" width="20" height="22" fill="#F2E6D0"></rect><rect x="50" y="54" width="20" height="22" fill="#B88A5A"></rect><rect x="70" y="54" width="20" height="22" fill="#F2E6D0"></rect><rect x="90" y="54" width="20" height="22" fill="#B88A5A"></rect><rect x="110" y="54" width="20" height="22" fill="#F2E6D0"></rect><rect x="30" y="76" width="20" height="22" fill="#B88A5A"></rect><rect x="50" y="76" width="20" height="22" fill="#F2E6D0"></rect><rect x="70" y="76" width="20" height="22" fill="#B88A5A"></rect><rect x="90" y="76" width="20" height="22" fill="#F2E6D0"></rect><rect x="110" y="76" width="20" height="22" fill="#B88A5A"></rect><rect x="30" y="10" width="100" height="88" rx="6" fill="none" stroke="#E4DFD4" stroke-width="1.5"></rect><g transform="translate(72 22)"><path d="M14 2v8M10 6h8" stroke="#1A1C20" stroke-width="3" stroke-linecap="round"></path><path d="M5 44c0-10 3-16 9-22 6 6 9 12 9 22z" fill="#1A1C20"></path><rect x="2" y="44" width="24" height="7" rx="2" fill="#1A1C20"></rect></g><g transform="translate(103 46)"><circle cx="10" cy="9" r="6.5" fill="#FFFDF8" stroke="#1A1C20" stroke-width="2"></circle><path d="M5 34c0-8 2-14 5-18 3 4 5 10 5 18z" fill="#FFFDF8" stroke="#1A1C20" stroke-width="2" stroke-linejoin="round"></path><rect x="1" y="33" width="18" height="6" rx="2" fill="#FFFDF8" stroke="#1A1C20" stroke-width="2"></rect></g></svg>